<?xml version="1.0" standalone="no"?>
<!DOCTYPE svg PUBLIC "-//W3C//DTD SVG 20010904//EN"
 "http://www.w3.org/TR/2001/REC-SVG-20010904/DTD/svg10.dtd">
<svg version="1.0" xmlns="http://www.w3.org/2000/svg"
 width="512.000000pt" height="512.000000pt" viewBox="0 0 512.000000 512.000000"
 preserveAspectRatio="xMidYMid meet">

<g transform="translate(0.000000,512.000000) scale(0.100000,-0.100000)"
fill="#190041" stroke="#190041">
<path d="M2671 5107 c-18 -6 -55 -31 -82 -56 -32 -31 -327 -461 -875 -1275
-455 -676 -835 -1246 -846 -1267 -23 -48 -24 -161 -3 -213 23 -54 84 -116 140
-142 l50 -24 498 0 c449 0 497 -2 497 -16 0 -9 -43 -420 -95 -913 -52 -494
-95 -920 -95 -947 0 -66 36 -140 93 -190 52 -46 102 -64 177 -64 78 0 127 19
181 70 68 64 1918 2709 1941 2775 9 28 17 66 18 86 1 100 -64 203 -154 245
l-51 24 -607 0 c-335 0 -608 3 -608 6 0 3 43 369 96 813 62 518 94 826 91 862
-3 30 -14 74 -25 96 -27 52 -100 116 -150 131 -48 14 -145 14 -191 -1z"/>
</g>
</svg>